<svg xmlns="http://www.w3.org/2000/svg" xmlns:xlink="http://www.w3.org/1999/xlink" width="1900" zoomAndPan="magnify" viewBox="0 0 1425 412.499988" height="550" preserveAspectRatio="xMidYMid meet" version="1.0"><defs><g/><clipPath id="3c9972cb65"><path d="M 13 61.191406 L 344 61.191406 L 344 351.09375 L 13 351.09375 Z M 13 61.191406 " clip-rule="nonzero"/></clipPath></defs><g fill="#d4a964" fill-opacity="1"><g transform="translate(378.840982, 191.021913)"><g><path d="M 40.59375 -60.15625 L 40.59375 -19.75 L 112.546875 -19.75 L 112.546875 0 L 15.125 0 L 15.125 -136.546875 L 110.53125 -136.546875 L 110.53125 -116.796875 L 40.59375 -116.796875 L 40.59375 -79.890625 L 104.0625 -79.890625 L 104.0625 -60.15625 Z M 40.59375 -60.15625 "/></g></g></g><g fill="#d4a964" fill-opacity="1"><g transform="translate(494.706143, 191.021913)"><g><path d="M 64.578125 -2.21875 L 99.265625 -136.546875 L 124.921875 -136.546875 L 86.359375 0 L 40.78125 0 L 2.578125 -136.546875 L 29.703125 -136.546875 L 64.21875 -2.21875 Z M 64.578125 -2.21875 "/></g></g></g><g fill="#d4a964" fill-opacity="1"><g transform="translate(618.135765, 191.021913)"><g><path d="M 71.40625 1.84375 C 58.125 1.84375 46.742188 -0.921875 37.265625 -6.453125 C 27.796875 -11.992188 20.539062 -19.988281 15.5 -30.4375 C 10.457031 -40.894531 7.9375 -53.503906 7.9375 -68.265625 C 7.9375 -83.023438 10.457031 -95.632812 15.5 -106.09375 C 20.539062 -116.550781 27.796875 -124.546875 37.265625 -130.078125 C 46.742188 -135.617188 58.125 -138.390625 71.40625 -138.390625 C 84.570312 -138.390625 95.859375 -135.617188 105.265625 -130.078125 C 114.671875 -124.546875 121.894531 -116.550781 126.9375 -106.09375 C 131.988281 -95.632812 134.515625 -83.023438 134.515625 -68.265625 C 134.515625 -53.503906 131.988281 -40.894531 126.9375 -30.4375 C 121.894531 -19.988281 114.671875 -11.992188 105.265625 -6.453125 C 95.859375 -0.921875 84.570312 1.84375 71.40625 1.84375 Z M 71.40625 -18.453125 C 82.96875 -18.453125 91.976562 -22.847656 98.4375 -31.640625 C 104.894531 -40.441406 108.125 -52.648438 108.125 -68.265625 C 108.125 -83.890625 104.894531 -96.097656 98.4375 -104.890625 C 91.976562 -113.691406 82.96875 -118.09375 71.40625 -118.09375 C 59.71875 -118.09375 50.613281 -113.691406 44.09375 -104.890625 C 37.570312 -96.097656 34.3125 -83.890625 34.3125 -68.265625 C 34.3125 -52.648438 37.570312 -40.441406 44.09375 -31.640625 C 50.613281 -22.847656 59.71875 -18.453125 71.40625 -18.453125 Z M 71.40625 -18.453125 "/></g></g></g><g fill="#d4a964" fill-opacity="1"><g transform="translate(756.6943, 191.021913)"><g><path d="M 40.59375 -136.546875 L 40.59375 -20.484375 L 100.5625 -20.484375 L 100.5625 0 L 15.125 0 L 15.125 -136.546875 Z M 40.59375 -136.546875 "/></g></g></g><g fill="#d4a964" fill-opacity="1"><g transform="translate(856.692521, 191.021913)"><g><path d="M 67.53125 1.84375 C 50.800781 1.84375 37.695312 -2.582031 28.21875 -11.4375 C 18.75 -20.289062 14.015625 -32.53125 14.015625 -48.15625 L 14.015625 -136.546875 L 39.484375 -136.546875 L 39.484375 -46.859375 C 39.484375 -37.878906 42.003906 -30.898438 47.046875 -25.921875 C 52.085938 -20.941406 59.101562 -18.453125 68.09375 -18.453125 C 77.1875 -18.453125 84.285156 -20.941406 89.390625 -25.921875 C 94.503906 -30.898438 97.0625 -37.878906 97.0625 -46.859375 L 97.0625 -136.546875 L 121.046875 -136.546875 L 121.046875 -48.15625 C 121.046875 -32.53125 116.335938 -20.289062 106.921875 -11.4375 C 97.515625 -2.582031 84.382812 1.84375 67.53125 1.84375 Z M 67.53125 1.84375 "/></g></g></g><g fill="#d4a964" fill-opacity="1"><g transform="translate(987.871122, 191.021913)"><g><path d="M 3.140625 -136.546875 L 108.5 -136.546875 L 108.5 -116.796875 L 68.640625 -116.796875 L 68.640625 0 L 43.171875 0 L 43.171875 -116.796875 L 3.140625 -116.796875 Z M 3.140625 -136.546875 "/></g></g></g><g fill="#d4a964" fill-opacity="1"><g transform="translate(1095.618335, 191.021913)"><g><path d="M 40.59375 0 L 15.125 0 L 15.125 -136.546875 L 40.59375 -136.546875 Z M 40.59375 0 "/></g></g></g><g fill="#d4a964" fill-opacity="1"><g transform="translate(1147.646803, 191.021913)"><g><path d="M 71.40625 1.84375 C 58.125 1.84375 46.742188 -0.921875 37.265625 -6.453125 C 27.796875 -11.992188 20.539062 -19.988281 15.5 -30.4375 C 10.457031 -40.894531 7.9375 -53.503906 7.9375 -68.265625 C 7.9375 -83.023438 10.457031 -95.632812 15.5 -106.09375 C 20.539062 -116.550781 27.796875 -124.546875 37.265625 -130.078125 C 46.742188 -135.617188 58.125 -138.390625 71.40625 -138.390625 C 84.570312 -138.390625 95.859375 -135.617188 105.265625 -130.078125 C 114.671875 -124.546875 121.894531 -116.550781 126.9375 -106.09375 C 131.988281 -95.632812 134.515625 -83.023438 134.515625 -68.265625 C 134.515625 -53.503906 131.988281 -40.894531 126.9375 -30.4375 C 121.894531 -19.988281 114.671875 -11.992188 105.265625 -6.453125 C 95.859375 -0.921875 84.570312 1.84375 71.40625 1.84375 Z M 71.40625 -18.453125 C 82.96875 -18.453125 91.976562 -22.847656 98.4375 -31.640625 C 104.894531 -40.441406 108.125 -52.648438 108.125 -68.265625 C 108.125 -83.890625 104.894531 -96.097656 98.4375 -104.890625 C 91.976562 -113.691406 82.96875 -118.09375 71.40625 -118.09375 C 59.71875 -118.09375 50.613281 -113.691406 44.09375 -104.890625 C 37.570312 -96.097656 34.3125 -83.890625 34.3125 -68.265625 C 34.3125 -52.648438 37.570312 -40.441406 44.09375 -31.640625 C 50.613281 -22.847656 59.71875 -18.453125 71.40625 -18.453125 Z M 71.40625 -18.453125 "/></g></g></g><g fill="#d4a964" fill-opacity="1"><g transform="translate(1286.205316, 191.021913)"><g><path d="M 101.484375 -2.21875 L 100.375 -136.546875 L 124.546875 -136.546875 L 124.546875 0 L 82.484375 0 L 38.9375 -134.328125 L 38.5625 -134.328125 L 39.484375 0 L 15.125 0 L 15.125 -136.546875 L 57.5625 -136.546875 L 101.109375 -2.21875 Z M 101.484375 -2.21875 "/></g></g></g><g fill="#d4a964" fill-opacity="1"><g transform="translate(378.829277, 356.571235)"><g><path d="M 62.734375 1.84375 C 46.367188 1.84375 33.234375 -2.519531 23.328125 -11.25 C 13.429688 -19.988281 7.804688 -32.171875 6.453125 -47.796875 L 31.546875 -47.796875 C 32.410156 -38.566406 35.609375 -31.367188 41.140625 -26.203125 C 46.679688 -21.035156 54.0625 -18.453125 63.28125 -18.453125 C 72.632812 -18.453125 79.894531 -20.296875 85.0625 -23.984375 C 90.226562 -27.671875 92.8125 -32.71875 92.8125 -39.125 C 92.8125 -44.40625 91.210938 -48.398438 88.015625 -51.109375 C 84.816406 -53.816406 80.632812 -55.785156 75.46875 -57.015625 C 70.300781 -58.242188 64.703125 -59.289062 58.671875 -60.15625 C 53.015625 -60.894531 47.328125 -61.878906 41.609375 -63.109375 C 35.890625 -64.335938 30.660156 -66.179688 25.921875 -68.640625 C 21.191406 -71.097656 17.378906 -74.632812 14.484375 -79.25 C 11.585938 -83.863281 10.140625 -89.921875 10.140625 -97.421875 C 10.140625 -110.710938 14.785156 -120.863281 24.078125 -127.875 C 33.367188 -134.882812 46.253906 -138.390625 62.734375 -138.390625 C 77.742188 -138.390625 89.890625 -134.207031 99.171875 -125.84375 C 108.460938 -117.476562 113.722656 -105.789062 114.953125 -90.78125 L 89.671875 -90.78125 C 89.179688 -99.394531 86.441406 -106.097656 81.453125 -110.890625 C 76.472656 -115.691406 69.800781 -118.09375 61.4375 -118.09375 C 53.445312 -118.09375 47.207031 -116.429688 42.71875 -113.109375 C 38.226562 -109.785156 35.984375 -105.171875 35.984375 -99.265625 C 35.984375 -94.710938 37.488281 -91.269531 40.5 -88.9375 C 43.507812 -86.601562 47.441406 -84.878906 52.296875 -83.765625 C 57.160156 -82.660156 62.425781 -81.675781 68.09375 -80.8125 C 73.875 -79.957031 79.710938 -78.914062 85.609375 -77.6875 C 91.515625 -76.457031 96.957031 -74.519531 101.9375 -71.875 C 106.925781 -69.226562 110.957031 -65.503906 114.03125 -60.703125 C 117.101562 -55.910156 118.640625 -49.578125 118.640625 -41.703125 C 118.640625 -28.046875 113.71875 -17.375 103.875 -9.6875 C 94.039062 -2 80.328125 1.84375 62.734375 1.84375 Z M 62.734375 1.84375 "/></g></g></g><g fill="#d4a964" fill-opacity="1"><g transform="translate(500.782902, 356.571235)"><g><path d="M 3.140625 -136.546875 L 108.5 -136.546875 L 108.5 -116.796875 L 68.640625 -116.796875 L 68.640625 0 L 43.171875 0 L 43.171875 -116.796875 L 3.140625 -116.796875 Z M 3.140625 -136.546875 "/></g></g></g><g fill="#d4a964" fill-opacity="1"><g transform="translate(608.530114, 356.571235)"><g><path d="M 131.1875 0 L 104.0625 0 L 94.65625 -33.03125 L 36.34375 -33.03125 L 26.9375 0 L 1.46875 0 L 43.921875 -136.546875 L 88.9375 -136.546875 Z M 65.5 -134.328125 L 42.0625 -52.765625 L 89.125 -52.765625 L 65.875 -134.328125 Z M 65.5 -134.328125 "/></g></g></g><g fill="#d4a964" fill-opacity="1"><g transform="translate(737.310198, 356.571235)"><g><path d="M 72.703125 -78.421875 L 75.46875 -78.421875 C 90.351562 -78.421875 101.945312 -75.097656 110.25 -68.453125 C 118.550781 -61.804688 122.703125 -52.457031 122.703125 -40.40625 C 122.703125 -27.738281 118.332031 -17.835938 109.59375 -10.703125 C 100.863281 -3.566406 88.628906 0 72.890625 0 L 15.125 0 L 15.125 -136.546875 L 74.359375 -136.546875 C 86.410156 -136.546875 95.816406 -133.929688 102.578125 -128.703125 C 109.347656 -123.472656 112.734375 -116.125 112.734375 -106.65625 C 112.734375 -98.039062 109.195312 -91.238281 102.125 -86.25 C 95.050781 -81.269531 85.242188 -78.78125 72.703125 -78.78125 Z M 86.359375 -97.796875 C 86.359375 -103.703125 84.570312 -108.34375 81 -111.71875 C 77.4375 -115.101562 72.457031 -116.796875 66.0625 -116.796875 L 40.59375 -116.796875 L 40.59375 -78.78125 L 66.0625 -78.78125 C 72.457031 -78.78125 77.4375 -80.472656 81 -83.859375 C 84.570312 -87.242188 86.359375 -91.890625 86.359375 -97.796875 Z M 40.59375 -19.75 L 74.171875 -19.75 C 81.066406 -19.75 86.476562 -21.59375 90.40625 -25.28125 C 94.34375 -28.96875 96.3125 -34.007812 96.3125 -40.40625 C 96.3125 -46.925781 94.34375 -52 90.40625 -55.625 C 86.476562 -59.257812 81.066406 -61.078125 74.171875 -61.078125 L 40.59375 -61.078125 Z M 40.59375 -19.75 "/></g></g></g><g fill="#d4a964" fill-opacity="1"><g transform="translate(862.769292, 356.571235)"><g><path d="M 40.59375 -136.546875 L 40.59375 -20.484375 L 100.5625 -20.484375 L 100.5625 0 L 15.125 0 L 15.125 -136.546875 Z M 40.59375 -136.546875 "/></g></g></g><g fill="#d4a964" fill-opacity="1"><g transform="translate(962.767536, 356.571235)"><g><path d="M 40.59375 -60.15625 L 40.59375 -19.75 L 112.546875 -19.75 L 112.546875 0 L 15.125 0 L 15.125 -136.546875 L 110.53125 -136.546875 L 110.53125 -116.796875 L 40.59375 -116.796875 L 40.59375 -79.890625 L 104.0625 -79.890625 L 104.0625 -60.15625 Z M 40.59375 -60.15625 "/></g></g></g><g fill="#d4a964" fill-opacity="1"><g transform="translate(1078.632685, 356.571235)"><g><path d="M 62.734375 1.84375 C 46.367188 1.84375 33.234375 -2.519531 23.328125 -11.25 C 13.429688 -19.988281 7.804688 -32.171875 6.453125 -47.796875 L 31.546875 -47.796875 C 32.410156 -38.566406 35.609375 -31.367188 41.140625 -26.203125 C 46.679688 -21.035156 54.0625 -18.453125 63.28125 -18.453125 C 72.632812 -18.453125 79.894531 -20.296875 85.0625 -23.984375 C 90.226562 -27.671875 92.8125 -32.71875 92.8125 -39.125 C 92.8125 -44.40625 91.210938 -48.398438 88.015625 -51.109375 C 84.816406 -53.816406 80.632812 -55.785156 75.46875 -57.015625 C 70.300781 -58.242188 64.703125 -59.289062 58.671875 -60.15625 C 53.015625 -60.894531 47.328125 -61.878906 41.609375 -63.109375 C 35.890625 -64.335938 30.660156 -66.179688 25.921875 -68.640625 C 21.191406 -71.097656 17.378906 -74.632812 14.484375 -79.25 C 11.585938 -83.863281 10.140625 -89.921875 10.140625 -97.421875 C 10.140625 -110.710938 14.785156 -120.863281 24.078125 -127.875 C 33.367188 -134.882812 46.253906 -138.390625 62.734375 -138.390625 C 77.742188 -138.390625 89.890625 -134.207031 99.171875 -125.84375 C 108.460938 -117.476562 113.722656 -105.789062 114.953125 -90.78125 L 89.671875 -90.78125 C 89.179688 -99.394531 86.441406 -106.097656 81.453125 -110.890625 C 76.472656 -115.691406 69.800781 -118.09375 61.4375 -118.09375 C 53.445312 -118.09375 47.207031 -116.429688 42.71875 -113.109375 C 38.226562 -109.785156 35.984375 -105.171875 35.984375 -99.265625 C 35.984375 -94.710938 37.488281 -91.269531 40.5 -88.9375 C 43.507812 -86.601562 47.441406 -84.878906 52.296875 -83.765625 C 57.160156 -82.660156 62.425781 -81.675781 68.09375 -80.8125 C 73.875 -79.957031 79.710938 -78.914062 85.609375 -77.6875 C 91.515625 -76.457031 96.957031 -74.519531 101.9375 -71.875 C 106.925781 -69.226562 110.957031 -65.503906 114.03125 -60.703125 C 117.101562 -55.910156 118.640625 -49.578125 118.640625 -41.703125 C 118.640625 -28.046875 113.71875 -17.375 103.875 -9.6875 C 94.039062 -2 80.328125 1.84375 62.734375 1.84375 Z M 62.734375 1.84375 "/></g></g></g><g clip-path="url(#3c9972cb65)"><path fill="#d4a964" d="M 275.25 107.621094 C 269.238281 101.386719 262.667969 95.675781 255.671875 90.578125 C 253.003906 88.613281 250.058594 86.648438 246.742188 84.5625 C 222.316406 69.269531 194.117188 61.191406 165.179688 61.191406 C 81.40625 61.191406 13.253906 128.195312 13.253906 210.550781 C 13.253906 271.316406 50.199219 325.574219 107.398438 348.695312 C 107.398438 348.695312 111.910156 350.507812 114.671875 351.09375 L 158.089844 275.832031 L 218.851562 328.921875 L 343.988281 107.621094 Z M 251.867188 197.285156 L 209.921875 271.46875 L 174.046875 242.914062 L 191.601562 211.347656 L 199.058594 214.785156 C 192.152344 205.265625 184.605469 185.554688 184.542969 173.917969 L 106.90625 308.472656 C 71.464844 288.359375 49.308594 251.386719 49.308594 210.519531 C 49.277344 148.09375 101.261719 97.242188 165.179688 97.242188 C 187.367188 97.242188 208.9375 103.414062 227.59375 115.113281 C 230.203125 116.742188 232.445312 118.246094 234.4375 119.71875 C 241.527344 124.878906 248 130.867188 253.710938 137.46875 L 259.109375 143.703125 L 302.867188 143.703125 L 265.644531 173.027344 L 251.898438 197.34375 L 251.898438 197.285156 Z M 251.867188 197.285156 " fill-opacity="1" fill-rule="nonzero"/></g></svg>