<svg xmlns="http://www.w3.org/2000/svg" xmlns:xlink="http://www.w3.org/1999/xlink" width="1080" zoomAndPan="magnify" viewBox="0 0 810 562.499983" height="750" preserveAspectRatio="xMidYMid meet" version="1.0"><defs><clipPath id="af8e80b992"><path d="M 0.359375 126 L 396 126 L 396 562 L 0.359375 562 Z M 0.359375 126 " clip-rule="nonzero"/></clipPath><clipPath id="3fe6e9560b"><path d="M 404 0 L 809.640625 0 L 809.640625 506 L 404 506 Z M 404 0 " clip-rule="nonzero"/></clipPath></defs><g clip-path="url(#af8e80b992)"><path stroke-linecap="butt" transform="matrix(0.491669, -0.565476, 0.565476, 0.491669, 24.325632, 519.003339)" fill="none" stroke-linejoin="miter" d="M -0.00167345 14.498635 L 488.567374 14.499774 " stroke="#000000" stroke-width="29" stroke-opacity="1" stroke-miterlimit="4"/></g><path stroke-linecap="butt" transform="matrix(-0.679173, -0.316583, 0.316583, -0.679173, 536.623463, 392.047238)" fill="none" stroke-linejoin="miter" d="M -0.00111976 14.50053 L 413.295115 14.502324 " stroke="#000000" stroke-width="29" stroke-opacity="1" stroke-miterlimit="4"/><g clip-path="url(#3fe6e9560b)"><path stroke-linecap="butt" transform="matrix(-0.45607, 0.59456, -0.59456, -0.45607, 776.892561, 74.205948)" fill="none" stroke-linejoin="miter" d="M 79.749815 14.502538 L 529.149277 14.501569 " stroke="#000000" stroke-width="29" stroke-opacity="1" stroke-miterlimit="4"/></g><path stroke-linecap="round" transform="matrix(-0.45607, 0.59456, -0.59456, -0.45607, 776.892561, 74.205948)" fill-opacity="1" fill="#000000" fill-rule="nonzero" stroke-linejoin="round" d="M 72.501105 -29.00184 L 14.499436 14.497527 L 72.499296 57.999307 Z M 72.501105 -29.00184 " stroke="#000000" stroke-width="29" stroke-opacity="1" stroke-miterlimit="4"/></svg>