<svg xmlns="http://www.w3.org/2000/svg" xmlns:xlink="http://www.w3.org/1999/xlink" width="1080" zoomAndPan="magnify" viewBox="0 0 810 562.499983" height="750" preserveAspectRatio="xMidYMid meet" version="1.0"><defs><clipPath id="9d29f4c908"><path d="M 0.359375 0 L 686 0 L 686 562 L 0.359375 562 Z M 0.359375 0 " clip-rule="nonzero"/></clipPath><clipPath id="6dc5c85641"><path d="M 0.359375 0 L 809.640625 0 L 809.640625 562 L 0.359375 562 Z M 0.359375 0 " clip-rule="nonzero"/></clipPath><clipPath id="45cb55ecd2"><path d="M 50 0 L 809.640625 0 L 809.640625 562 L 50 562 Z M 50 0 " clip-rule="nonzero"/></clipPath></defs><g clip-path="url(#9d29f4c908)"><path stroke-linecap="butt" transform="matrix(0.495314, -0.562286, 0.562286, 0.495314, 5.909762, 499.11959)" fill="none" stroke-linejoin="miter" d="M -0.00197671 50.000644 L 458.580055 49.998054 " stroke="#000000" stroke-width="100" stroke-opacity="1" stroke-miterlimit="4"/></g><g clip-path="url(#6dc5c85641)"><path stroke-linecap="butt" transform="matrix(-0.678066, -0.318948, 0.318948, -0.678066, 502.092863, 450.565441)" fill="none" stroke-linejoin="miter" d="M 0.000339699 49.997001 L 443.761741 50.000503 " stroke="#000000" stroke-width="100" stroke-opacity="1" stroke-miterlimit="4"/></g><g clip-path="url(#45cb55ecd2)"><path stroke-linecap="butt" transform="matrix(-0.483238, 0.572698, -0.572698, -0.483238, 802.150388, 95.501921)" fill="none" stroke-linejoin="miter" d="M 50.000098 49.996686 L 619.899668 49.999111 " stroke="#000000" stroke-width="100" stroke-opacity="1" stroke-miterlimit="4"/></g><path stroke-linecap="round" transform="matrix(-0.483238, 0.572698, -0.572698, -0.483238, 802.150388, 95.501921)" fill="none" stroke-linejoin="round" d="M 250.001028 -99.998595 L 50.000098 49.996686 L 249.99913 200.001843 " stroke="#000000" stroke-width="100" stroke-opacity="1" stroke-miterlimit="4"/></svg>