<svg xmlns="http://www.w3.org/2000/svg" xmlns:xlink="http://www.w3.org/1999/xlink" width="1920" zoomAndPan="magnify" viewBox="0 0 1440 599.999999" height="800" preserveAspectRatio="xMidYMid meet" version="1.0"><defs><g/><clipPath id="ac1338585a"><rect x="0" width="1355" y="0" height="516"/></clipPath></defs><g transform="matrix(1, 0, 0, 1, 41, 42)"><g clip-path="url(#ac1338585a)"><g fill="#d4a964" fill-opacity="1"><g transform="translate(0.430813, 238.503161)"><g><path d="M 47.8125 -83.125 L 47.8125 -20.359375 L 145.15625 -20.359375 L 145.15625 0 L 22.0625 0 L 22.0625 -181.453125 L 142.46875 -181.453125 L 142.46875 -161.09375 L 47.8125 -161.09375 L 47.8125 -103.71875 L 133.875 -103.71875 L 133.875 -83.125 Z M 47.8125 -83.125 "/></g></g></g><g fill="#d4a964" fill-opacity="1"><g transform="translate(150.729012, 238.503161)"><g><path d="M 82.875 -2.453125 L 133.640625 -181.453125 L 159.875 -181.453125 L 105.1875 0 L 58.609375 0 L 4.171875 -181.453125 L 31.875 -181.453125 L 82.390625 -2.453125 Z M 82.875 -2.453125 "/></g></g></g><g fill="#d4a964" fill-opacity="1"><g transform="translate(309.363519, 238.503161)"><g><path d="M 92.9375 2.453125 C 76.09375 2.453125 61.625 -1.222656 49.53125 -8.578125 C 37.4375 -15.929688 28.203125 -26.554688 21.828125 -40.453125 C 15.453125 -54.347656 12.265625 -71.101562 12.265625 -90.71875 C 12.265625 -110.34375 15.453125 -127.097656 21.828125 -140.984375 C 28.203125 -154.878906 37.4375 -165.503906 49.53125 -172.859375 C 61.625 -180.222656 76.09375 -183.90625 92.9375 -183.90625 C 109.769531 -183.90625 124.191406 -180.222656 136.203125 -172.859375 C 148.222656 -165.503906 157.421875 -154.878906 163.796875 -140.984375 C 170.171875 -127.097656 173.359375 -110.34375 173.359375 -90.71875 C 173.359375 -71.101562 170.171875 -54.347656 163.796875 -40.453125 C 157.421875 -26.554688 148.222656 -15.929688 136.203125 -8.578125 C 124.191406 -1.222656 109.769531 2.453125 92.9375 2.453125 Z M 92.9375 -18.640625 C 109.9375 -18.640625 123.175781 -24.972656 132.65625 -37.640625 C 142.132812 -50.304688 146.875 -68 146.875 -90.71875 C 146.875 -113.445312 142.132812 -131.144531 132.65625 -143.8125 C 123.175781 -156.476562 109.9375 -162.8125 92.9375 -162.8125 C 75.769531 -162.8125 62.40625 -156.476562 52.84375 -143.8125 C 43.28125 -131.144531 38.5 -113.445312 38.5 -90.71875 C 38.5 -68 43.28125 -50.304688 52.84375 -37.640625 C 62.40625 -24.972656 75.769531 -18.640625 92.9375 -18.640625 Z M 92.9375 -18.640625 "/></g></g></g><g fill="#d4a964" fill-opacity="1"><g transform="translate(489.819518, 238.503161)"><g><path d="M 47.8125 -181.453125 L 47.8125 -21.09375 L 129.953125 -21.09375 L 129.953125 0 L 22.0625 0 L 22.0625 -181.453125 Z M 47.8125 -181.453125 "/></g></g></g><g fill="#d4a964" fill-opacity="1"><g transform="translate(619.276961, 238.503161)"><g><path d="M 88.265625 2.453125 C 67.015625 2.453125 50.382812 -3.347656 38.375 -14.953125 C 26.363281 -26.554688 20.359375 -42.578125 20.359375 -63.015625 L 20.359375 -181.453125 L 45.859375 -181.453125 L 45.859375 -61.546875 C 45.859375 -48.140625 49.65625 -37.632812 57.25 -30.03125 C 64.851562 -22.4375 75.441406 -18.640625 89.015625 -18.640625 C 102.578125 -18.640625 113.160156 -22.4375 120.765625 -30.03125 C 128.367188 -37.632812 132.171875 -48.140625 132.171875 -61.546875 L 132.171875 -181.453125 L 156.4375 -181.453125 L 156.4375 -63.015625 C 156.4375 -42.578125 150.425781 -26.554688 138.40625 -14.953125 C 126.394531 -3.347656 109.679688 2.453125 88.265625 2.453125 Z M 88.265625 2.453125 "/></g></g></g><g fill="#d4a964" fill-opacity="1"><g transform="translate(790.906312, 238.503161)"><g><path d="M 4.40625 -181.453125 L 140.015625 -181.453125 L 140.015625 -161.09375 L 85.078125 -161.09375 L 85.078125 0 L 59.34375 0 L 59.34375 -161.09375 L 4.40625 -161.09375 Z M 4.40625 -181.453125 "/></g></g></g><g fill="#d4a964" fill-opacity="1"><g transform="translate(930.171113, 238.503161)"><g><path d="M 47.8125 0 L 22.0625 0 L 22.0625 -181.453125 L 47.8125 -181.453125 Z M 47.8125 0 "/></g></g></g><g fill="#d4a964" fill-opacity="1"><g transform="translate(994.899564, 238.503161)"><g><path d="M 92.9375 2.453125 C 76.09375 2.453125 61.625 -1.222656 49.53125 -8.578125 C 37.4375 -15.929688 28.203125 -26.554688 21.828125 -40.453125 C 15.453125 -54.347656 12.265625 -71.101562 12.265625 -90.71875 C 12.265625 -110.34375 15.453125 -127.097656 21.828125 -140.984375 C 28.203125 -154.878906 37.4375 -165.503906 49.53125 -172.859375 C 61.625 -180.222656 76.09375 -183.90625 92.9375 -183.90625 C 109.769531 -183.90625 124.191406 -180.222656 136.203125 -172.859375 C 148.222656 -165.503906 157.421875 -154.878906 163.796875 -140.984375 C 170.171875 -127.097656 173.359375 -110.34375 173.359375 -90.71875 C 173.359375 -71.101562 170.171875 -54.347656 163.796875 -40.453125 C 157.421875 -26.554688 148.222656 -15.929688 136.203125 -8.578125 C 124.191406 -1.222656 109.769531 2.453125 92.9375 2.453125 Z M 92.9375 -18.640625 C 109.9375 -18.640625 123.175781 -24.972656 132.65625 -37.640625 C 142.132812 -50.304688 146.875 -68 146.875 -90.71875 C 146.875 -113.445312 142.132812 -131.144531 132.65625 -143.8125 C 123.175781 -156.476562 109.9375 -162.8125 92.9375 -162.8125 C 75.769531 -162.8125 62.40625 -156.476562 52.84375 -143.8125 C 43.28125 -131.144531 38.5 -113.445312 38.5 -90.71875 C 38.5 -68 43.28125 -50.304688 52.84375 -37.640625 C 62.40625 -24.972656 75.769531 -18.640625 92.9375 -18.640625 Z M 92.9375 -18.640625 "/></g></g></g><g fill="#d4a964" fill-opacity="1"><g transform="translate(1175.355591, 238.503161)"><g><path d="M 136.578125 -2.453125 L 135.84375 -181.453125 L 160.125 -181.453125 L 160.125 0 L 116.21875 0 L 46.34375 -179 L 45.859375 -179 L 46.828125 0 L 22.0625 0 L 22.0625 -181.453125 L 66.203125 -181.453125 L 136.09375 -2.453125 Z M 136.578125 -2.453125 "/></g></g></g><g fill="#d4a964" fill-opacity="1"><g transform="translate(0.40313, 458.193159)"><g><path d="M 81.65625 2.453125 C 60.5625 2.453125 43.679688 -3.265625 31.015625 -14.703125 C 18.347656 -26.148438 11.28125 -42.171875 9.8125 -62.765625 L 35.3125 -62.765625 C 36.289062 -48.878906 40.90625 -38.050781 49.15625 -30.28125 C 57.414062 -22.519531 68.410156 -18.640625 82.140625 -18.640625 C 96.359375 -18.640625 107.429688 -21.457031 115.359375 -27.09375 C 123.296875 -32.726562 127.265625 -40.613281 127.265625 -50.75 C 127.265625 -59.09375 124.890625 -65.347656 120.140625 -69.515625 C 115.398438 -73.679688 109.269531 -76.703125 101.75 -78.578125 C 94.238281 -80.460938 86.234375 -82.0625 77.734375 -83.375 C 70.367188 -84.507812 62.96875 -85.894531 55.53125 -87.53125 C 48.09375 -89.164062 41.304688 -91.578125 35.171875 -94.765625 C 29.046875 -97.953125 24.144531 -102.488281 20.46875 -108.375 C 16.789062 -114.257812 14.953125 -121.941406 14.953125 -131.421875 C 14.953125 -148.429688 20.835938 -161.429688 32.609375 -170.421875 C 44.378906 -179.410156 60.726562 -183.90625 81.65625 -183.90625 C 101.269531 -183.90625 116.960938 -178.382812 128.734375 -167.34375 C 140.503906 -156.3125 147.039062 -141.070312 148.34375 -121.625 L 123.09375 -121.625 C 122.4375 -134.695312 118.347656 -144.828125 110.828125 -152.015625 C 103.304688 -159.210938 93.253906 -162.8125 80.671875 -162.8125 C 68.242188 -162.8125 58.515625 -160.234375 51.484375 -155.078125 C 44.460938 -149.929688 40.953125 -142.617188 40.953125 -133.140625 C 40.953125 -126.109375 43.113281 -120.753906 47.4375 -117.078125 C 51.769531 -113.398438 57.492188 -110.742188 64.609375 -109.109375 C 71.722656 -107.472656 79.285156 -106.003906 87.296875 -104.703125 C 94.972656 -103.554688 102.734375 -102.082031 110.578125 -100.28125 C 118.429688 -98.488281 125.585938 -95.875 132.046875 -92.4375 C 138.503906 -89.007812 143.691406 -84.144531 147.609375 -77.84375 C 151.535156 -71.550781 153.5 -63.257812 153.5 -52.96875 C 153.5 -35.632812 147.160156 -22.0625 134.484375 -12.25 C 121.816406 -2.445312 104.207031 2.453125 81.65625 2.453125 Z M 81.65625 2.453125 "/></g></g></g><g fill="#d4a964" fill-opacity="1"><g transform="translate(159.282807, 458.193159)"><g><path d="M 4.40625 -181.453125 L 140.015625 -181.453125 L 140.015625 -161.09375 L 85.078125 -161.09375 L 85.078125 0 L 59.34375 0 L 59.34375 -161.09375 L 4.40625 -161.09375 Z M 4.40625 -181.453125 "/></g></g></g><g fill="#d4a964" fill-opacity="1"><g transform="translate(298.547635, 458.193159)"><g><path d="M 168.203125 0 L 140.5 0 L 126.28125 -45.609375 L 43.15625 -45.609375 L 28.9375 0 L 2.703125 0 L 63.015625 -181.453125 L 108.375 -181.453125 Z M 84.59375 -179 L 49.53125 -66.203125 L 119.90625 -66.203125 L 85.078125 -179 Z M 84.59375 -179 "/></g></g></g><g fill="#d4a964" fill-opacity="1"><g transform="translate(464.29249, 458.193159)"><g><path d="M 95.140625 -102.25 L 98.578125 -102.25 C 117.210938 -102.25 131.71875 -97.832031 142.09375 -89 C 152.476562 -80.175781 157.671875 -67.921875 157.671875 -52.234375 C 157.671875 -35.878906 152.234375 -23.082031 141.359375 -13.84375 C 130.484375 -4.613281 115.320312 0 95.875 0 L 22.0625 0 L 22.0625 -181.453125 L 94.15625 -181.453125 C 109.851562 -181.453125 122.070312 -177.851562 130.8125 -170.65625 C 139.5625 -163.46875 143.9375 -153.332031 143.9375 -140.25 C 143.9375 -128.476562 139.644531 -119.28125 131.0625 -112.65625 C 122.476562 -106.039062 110.503906 -102.734375 95.140625 -102.734375 Z M 117.453125 -131.671875 C 117.453125 -140.828125 114.671875 -148.019531 109.109375 -153.25 C 103.554688 -158.476562 95.796875 -161.09375 85.828125 -161.09375 L 47.8125 -161.09375 L 47.8125 -102.734375 L 85.828125 -102.734375 C 95.796875 -102.734375 103.554688 -105.265625 109.109375 -110.328125 C 114.671875 -115.398438 117.453125 -122.515625 117.453125 -131.671875 Z M 47.8125 -20.359375 L 97.09375 -20.359375 C 107.71875 -20.359375 116.054688 -23.175781 122.109375 -28.8125 C 128.160156 -34.445312 131.1875 -42.253906 131.1875 -52.234375 C 131.1875 -62.035156 128.160156 -69.710938 122.109375 -75.265625 C 116.054688 -80.828125 107.71875 -83.609375 97.09375 -83.609375 L 47.8125 -83.609375 Z M 47.8125 -20.359375 "/></g></g></g><g fill="#d4a964" fill-opacity="1"><g transform="translate(627.095164, 458.193159)"><g><path d="M 47.8125 -181.453125 L 47.8125 -21.09375 L 129.953125 -21.09375 L 129.953125 0 L 22.0625 0 L 22.0625 -181.453125 Z M 47.8125 -181.453125 "/></g></g></g><g fill="#d4a964" fill-opacity="1"><g transform="translate(756.552607, 458.193159)"><g><path d="M 47.8125 -83.125 L 47.8125 -20.359375 L 145.15625 -20.359375 L 145.15625 0 L 22.0625 0 L 22.0625 -181.453125 L 142.46875 -181.453125 L 142.46875 -161.09375 L 47.8125 -161.09375 L 47.8125 -103.71875 L 133.875 -103.71875 L 133.875 -83.125 Z M 47.8125 -83.125 "/></g></g></g><g fill="#d4a964" fill-opacity="1"><g transform="translate(906.850807, 458.193159)"><g><path d="M 81.65625 2.453125 C 60.5625 2.453125 43.679688 -3.265625 31.015625 -14.703125 C 18.347656 -26.148438 11.28125 -42.171875 9.8125 -62.765625 L 35.3125 -62.765625 C 36.289062 -48.878906 40.90625 -38.050781 49.15625 -30.28125 C 57.414062 -22.519531 68.410156 -18.640625 82.140625 -18.640625 C 96.359375 -18.640625 107.429688 -21.457031 115.359375 -27.09375 C 123.296875 -32.726562 127.265625 -40.613281 127.265625 -50.75 C 127.265625 -59.09375 124.890625 -65.347656 120.140625 -69.515625 C 115.398438 -73.679688 109.269531 -76.703125 101.75 -78.578125 C 94.238281 -80.460938 86.234375 -82.0625 77.734375 -83.375 C 70.367188 -84.507812 62.96875 -85.894531 55.53125 -87.53125 C 48.09375 -89.164062 41.304688 -91.578125 35.171875 -94.765625 C 29.046875 -97.953125 24.144531 -102.488281 20.46875 -108.375 C 16.789062 -114.257812 14.953125 -121.941406 14.953125 -131.421875 C 14.953125 -148.429688 20.835938 -161.429688 32.609375 -170.421875 C 44.378906 -179.410156 60.726562 -183.90625 81.65625 -183.90625 C 101.269531 -183.90625 116.960938 -178.382812 128.734375 -167.34375 C 140.503906 -156.3125 147.039062 -141.070312 148.34375 -121.625 L 123.09375 -121.625 C 122.4375 -134.695312 118.347656 -144.828125 110.828125 -152.015625 C 103.304688 -159.210938 93.253906 -162.8125 80.671875 -162.8125 C 68.242188 -162.8125 58.515625 -160.234375 51.484375 -155.078125 C 44.460938 -149.929688 40.953125 -142.617188 40.953125 -133.140625 C 40.953125 -126.109375 43.113281 -120.753906 47.4375 -117.078125 C 51.769531 -113.398438 57.492188 -110.742188 64.609375 -109.109375 C 71.722656 -107.472656 79.285156 -106.003906 87.296875 -104.703125 C 94.972656 -103.554688 102.734375 -102.082031 110.578125 -100.28125 C 118.429688 -98.488281 125.585938 -95.875 132.046875 -92.4375 C 138.503906 -89.007812 143.691406 -84.144531 147.609375 -77.84375 C 151.535156 -71.550781 153.5 -63.257812 153.5 -52.96875 C 153.5 -35.632812 147.160156 -22.0625 134.484375 -12.25 C 121.816406 -2.445312 104.207031 2.453125 81.65625 2.453125 Z M 81.65625 2.453125 "/></g></g></g></g></g></svg>